<svg xmlns="http://www.w3.org/2000/svg" data-name="Layer 1" viewBox="0 0 100 125" x="0px" y="0px"><title>138all</title><path d="M90.35,76.46a9.89,9.89,0,1,0-9.9,9.9A9.91,9.91,0,0,0,90.35,76.46Zm-13.79,0a3.89,3.89,0,1,1,3.89,3.9A3.9,3.9,0,0,1,76.56,76.46Z"/><path d="M28,13.64H16.62a3,3,0,1,0,0,6H28l2.37,9.89a3,3,0,0,0,.55,2.3L36.53,55.4a9,9,0,0,0,8.75,6.9H82.1a9,9,0,0,0,8.74-6.84l6.09-24.7A3,3,0,0,0,94,27H35.91l-2.11-8.8A6,6,0,0,0,28,13.64ZM90.19,33,85,54A3,3,0,0,1,82.1,56.3H45.29A3,3,0,0,1,42.37,54l-5-21Z"/><path d="M44.56,86.36a9.9,9.9,0,1,0-9.89-9.9A9.91,9.91,0,0,0,44.56,86.36Zm0-13.79a3.9,3.9,0,1,1-3.89,3.89A3.9,3.9,0,0,1,44.56,72.57Z"/><path d="M23.35,36.67H6a3,3,0,1,0,0,6H23.35a3,3,0,0,0,0-6Z"/><path d="M26.35,46.67H14a3,3,0,1,0,0,6H26.35a3,3,0,0,0,0-6Z"/><path d="M4,59.67a3,3,0,0,0,3,3H29.35a3,3,0,0,0,0-6H7A3,3,0,0,0,4,59.67Z"/></svg>